<svg width="328" height="37" viewBox="0 0 328 37" fill="none" xmlns="http://www.w3.org/2000/svg">
<path d="M7.84 28V7.76H0.96V2H21.6V7.76H14.72V28H7.84ZM33.7781 28.48C32.0715 28.48 30.4581 28.0667 28.9381 27.24C27.4448 26.4133 26.2181 25.2267 25.2581 23.68C24.3248 22.1067 23.8581 20.2133 23.8581 18C23.8581 15.7867 24.3248 13.9067 25.2581 12.36C26.2181 10.7867 27.4448 9.58667 28.9381 8.76C30.4581 7.93333 32.0715 7.52 33.7781 7.52C35.4848 7.52 37.0848 7.93333 38.5781 8.76C40.0981 9.58667 41.3248 10.7867 42.2581 12.36C43.2181 13.9067 43.6981 15.7867 43.6981 18C43.6981 20.2133 43.2181 22.1067 42.2581 23.68C41.3248 25.2267 40.0981 26.4133 38.5781 27.24C37.0848 28.0667 35.4848 28.48 33.7781 28.48ZM33.7781 22.96C34.4715 22.96 35.0315 22.76 35.4581 22.36C35.8848 21.96 36.1915 21.3867 36.3781 20.64C36.5648 19.8933 36.6581 19.0133 36.6581 18C36.6581 16.9867 36.5648 16.1067 36.3781 15.36C36.1915 14.6133 35.8848 14.04 35.4581 13.64C35.0315 13.24 34.4715 13.04 33.7781 13.04C33.0848 13.04 32.5248 13.24 32.0981 13.64C31.6715 14.04 31.3648 14.6133 31.1781 15.36C30.9915 16.1067 30.8981 16.9867 30.8981 18C30.8981 19.0133 30.9915 19.8933 31.1781 20.64C31.3648 21.3867 31.6715 21.96 32.0981 22.36C32.5248 22.76 33.0848 22.96 33.7781 22.96ZM54.5609 36.24C53.0409 36.24 51.6409 36.0667 50.3609 35.72C49.0809 35.4 48.0543 34.88 47.2809 34.16C46.5343 33.44 46.1609 32.48 46.1609 31.28C46.1609 30.4533 46.4009 29.72 46.8809 29.08C47.3609 28.4667 48.0543 27.92 48.9609 27.44V27.28C48.4543 26.9067 48.0143 26.4533 47.6409 25.92C47.2943 25.36 47.1209 24.6667 47.1209 23.84C47.1209 23.1467 47.3209 22.4667 47.7209 21.8C48.1476 21.1333 48.6943 20.56 49.3609 20.08V19.92C48.6409 19.44 48.0009 18.76 47.4409 17.88C46.9076 16.9733 46.6409 15.9467 46.6409 14.8C46.6409 13.1467 47.0409 11.7867 47.8409 10.72C48.6676 9.62667 49.7343 8.82667 51.0409 8.32C52.3476 7.78667 53.7343 7.52 55.2009 7.52C55.7609 7.52 56.3076 7.56 56.8409 7.64C57.4009 7.72 57.9209 7.84 58.4009 8H65.8409V12.96H62.9609C63.0409 13.2 63.1076 13.5067 63.1609 13.88C63.2409 14.2533 63.2809 14.64 63.2809 15.04C63.2809 16.6133 62.9209 17.8933 62.2009 18.88C61.4809 19.84 60.5076 20.5467 59.2809 21C58.0543 21.4533 56.6943 21.68 55.2009 21.68C54.8809 21.68 54.5343 21.6667 54.1609 21.64C53.8143 21.5867 53.4143 21.5067 52.9609 21.4C52.7743 21.5867 52.6409 21.76 52.5609 21.92C52.5076 22.0533 52.4809 22.2667 52.4809 22.56C52.4809 22.9867 52.6943 23.2933 53.1209 23.48C53.5743 23.6667 54.2943 23.76 55.2809 23.76H58.2809C60.7876 23.76 62.7209 24.1733 64.0809 25C65.4676 25.8 66.1609 27.12 66.1609 28.96C66.1609 30.4 65.6809 31.6667 64.7209 32.76C63.7876 33.8533 62.4543 34.7067 60.7209 35.32C58.9876 35.9333 56.9343 36.24 54.5609 36.24ZM55.6809 32C56.4276 32 57.0943 31.92 57.6809 31.76C58.2676 31.6267 58.7343 31.4133 59.0809 31.12C59.4276 30.8533 59.6009 30.5333 59.6009 30.16C59.6009 29.6267 59.3609 29.2933 58.8809 29.16C58.4276 29.0267 57.7743 28.96 56.9209 28.96H55.3609C54.5609 28.96 53.9476 28.9333 53.5209 28.88C53.1209 28.8533 52.7743 28.8 52.4809 28.72C52.2409 28.96 52.0543 29.1867 51.9209 29.4C51.8143 29.6133 51.7609 29.8667 51.7609 30.16C51.7609 30.8 52.1209 31.2667 52.8409 31.56C53.5876 31.8533 54.5343 32 55.6809 32ZM55.2009 17.6C55.6276 17.6 56.0009 17.5067 56.3209 17.32C56.6409 17.1067 56.8943 16.8 57.0809 16.4C57.2676 15.9733 57.3609 15.44 57.3609 14.8C57.3609 14.1867 57.2676 13.68 57.0809 13.28C56.8943 12.88 56.6409 12.5867 56.3209 12.4C56.0009 12.1867 55.6276 12.08 55.2009 12.08C54.5609 12.08 54.0409 12.3067 53.6409 12.76C53.2409 13.1867 53.0409 13.8667 53.0409 14.8C53.0409 15.44 53.1343 15.9733 53.3209 16.4C53.5076 16.8 53.7609 17.1067 54.0809 17.32C54.4009 17.5067 54.7743 17.6 55.2009 17.6ZM76.3969 36.24C74.8769 36.24 73.4769 36.0667 72.1969 35.72C70.9169 35.4 69.8902 34.88 69.1169 34.16C68.3702 33.44 67.9969 32.48 67.9969 31.28C67.9969 30.4533 68.2369 29.72 68.7169 29.08C69.1969 28.4667 69.8902 27.92 70.7969 27.44V27.28C70.2902 26.9067 69.8502 26.4533 69.4769 25.92C69.1302 25.36 68.9569 24.6667 68.9569 23.84C68.9569 23.1467 69.1569 22.4667 69.5569 21.8C69.9835 21.1333 70.5302 20.56 71.1969 20.08V19.92C70.4769 19.44 69.8369 18.76 69.2769 17.88C68.7435 16.9733 68.4769 15.9467 68.4769 14.8C68.4769 13.1467 68.8769 11.7867 69.6769 10.72C70.5035 9.62667 71.5702 8.82667 72.8769 8.32C74.1835 7.78667 75.5702 7.52 77.0369 7.52C77.5969 7.52 78.1435 7.56 78.6769 7.64C79.2369 7.72 79.7569 7.84 80.2369 8H87.6769V12.96H84.7969C84.8769 13.2 84.9435 13.5067 84.9969 13.88C85.0769 14.2533 85.1169 14.64 85.1169 15.04C85.1169 16.6133 84.7569 17.8933 84.0369 18.88C83.3169 19.84 82.3435 20.5467 81.1169 21C79.8902 21.4533 78.5302 21.68 77.0369 21.68C76.7169 21.68 76.3702 21.6667 75.9969 21.64C75.6502 21.5867 75.2502 21.5067 74.7969 21.4C74.6102 21.5867 74.4769 21.76 74.3969 21.92C74.3435 22.0533 74.3169 22.2667 74.3169 22.56C74.3169 22.9867 74.5302 23.2933 74.9569 23.48C75.4102 23.6667 76.1302 23.76 77.1169 23.76H80.1169C82.6235 23.76 84.5569 24.1733 85.9169 25C87.3035 25.8 87.9969 27.12 87.9969 28.96C87.9969 30.4 87.5169 31.6667 86.5569 32.76C85.6235 33.8533 84.2902 34.7067 82.5569 35.32C80.8235 35.9333 78.7702 36.24 76.3969 36.24ZM77.5169 32C78.2635 32 78.9302 31.92 79.5169 31.76C80.1035 31.6267 80.5702 31.4133 80.9169 31.12C81.2635 30.8533 81.4369 30.5333 81.4369 30.16C81.4369 29.6267 81.1969 29.2933 80.7169 29.16C80.2635 29.0267 79.6102 28.96 78.7569 28.96H77.1969C76.3969 28.96 75.7835 28.9333 75.3569 28.88C74.9569 28.8533 74.6102 28.8 74.3169 28.72C74.0769 28.96 73.8902 29.1867 73.7569 29.4C73.6502 29.6133 73.5969 29.8667 73.5969 30.16C73.5969 30.8 73.9569 31.2667 74.6769 31.56C75.4235 31.8533 76.3702 32 77.5169 32ZM77.0369 17.6C77.4635 17.6 77.8369 17.5067 78.1569 17.32C78.4769 17.1067 78.7302 16.8 78.9169 16.4C79.1035 15.9733 79.1969 15.44 79.1969 14.8C79.1969 14.1867 79.1035 13.68 78.9169 13.28C78.7302 12.88 78.4769 12.5867 78.1569 12.4C77.8369 12.1867 77.4635 12.08 77.0369 12.08C76.3969 12.08 75.8769 12.3067 75.4769 12.76C75.0769 13.1867 74.8769 13.8667 74.8769 14.8C74.8769 15.44 74.9702 15.9733 75.1569 16.4C75.3435 16.8 75.5969 17.1067 75.9169 17.32C76.2369 17.5067 76.6102 17.6 77.0369 17.6ZM97.1128 28.48C95.5661 28.48 94.3395 28.1733 93.4328 27.56C92.5528 26.92 91.9128 26.04 91.5128 24.92C91.1395 23.7733 90.9528 22.4533 90.9528 20.96V0.159998H97.8328V21.2C97.8328 21.8667 97.9528 22.3333 98.1928 22.6C98.4595 22.84 98.7128 22.96 98.9528 22.96C99.0861 22.96 99.1928 22.96 99.2728 22.96C99.3795 22.9333 99.5128 22.9067 99.6728 22.88L100.473 27.92C100.126 28.08 99.6728 28.2133 99.1128 28.32C98.5528 28.4267 97.8861 28.48 97.1128 28.48ZM112.147 28.48C110.2 28.48 108.44 28.0667 106.867 27.24C105.32 26.4133 104.094 25.2267 103.187 23.68C102.28 22.1067 101.827 20.2133 101.827 18C101.827 15.84 102.28 13.9867 103.187 12.44C104.12 10.8667 105.32 9.65333 106.787 8.8C108.254 7.94667 109.8 7.52 111.427 7.52C113.4 7.52 115.027 7.96 116.307 8.84C117.614 9.69333 118.574 10.8533 119.187 12.32C119.827 13.7867 120.147 15.4133 120.147 17.2C120.147 17.7867 120.107 18.36 120.027 18.92C119.974 19.4533 119.92 19.84 119.867 20.08H107.267L107.187 15.6H114.307C114.307 14.8267 114.107 14.16 113.707 13.6C113.334 13.0133 112.627 12.72 111.587 12.72C111 12.72 110.44 12.88 109.907 13.2C109.374 13.52 108.934 14.0667 108.587 14.84C108.24 15.6133 108.067 16.6667 108.067 18C108.067 19.4133 108.32 20.5067 108.827 21.28C109.334 22.0267 109.974 22.5467 110.747 22.84C111.52 23.1333 112.307 23.28 113.107 23.28C113.8 23.28 114.467 23.1867 115.107 23C115.774 22.7867 116.467 22.48 117.187 22.08L119.427 26.16C118.36 26.9067 117.16 27.48 115.827 27.88C114.494 28.28 113.267 28.48 112.147 28.48Z" fill="white"/>
<path d="M124.482 28V2H131.362V11.68H139.122V2H146.002V28H139.122V17.68H131.362V28H124.482ZM151.747 28V2H161.587C163.454 2 165.174 2.25333 166.747 2.76C168.321 3.24 169.587 4.09333 170.547 5.32C171.507 6.54667 171.987 8.24 171.987 10.4C171.987 12.48 171.507 14.1733 170.547 15.48C169.587 16.7867 168.321 17.7467 166.747 18.36C165.174 18.9733 163.454 19.28 161.587 19.28H158.627V28H151.747ZM165.747 28L160.347 17.48L164.987 12.92L173.427 28H165.747ZM158.627 13.84H161.107C162.467 13.84 163.494 13.5467 164.187 12.96C164.907 12.3733 165.267 11.52 165.267 10.4C165.267 9.28 164.907 8.50667 164.187 8.08C163.494 7.65333 162.467 7.44 161.107 7.44H158.627V13.84ZM196.23 28.48C194.017 28.48 191.964 28 190.07 27.04C188.204 26.0533 186.697 24.5733 185.55 22.6C184.404 20.6267 183.83 18.16 183.83 15.2C183.83 13.0133 184.164 11.08 184.83 9.4C185.524 7.69333 186.457 6.25333 187.63 5.08C188.83 3.90667 190.177 3.02666 191.67 2.44C193.19 1.82666 194.764 1.52 196.39 1.52C198.124 1.52 199.67 1.86666 201.03 2.56C202.417 3.22667 203.564 4.02667 204.47 4.96L200.87 9.36C200.23 8.8 199.564 8.34667 198.87 8C198.204 7.62667 197.43 7.44 196.55 7.44C195.537 7.44 194.59 7.74667 193.71 8.36C192.857 8.94667 192.164 9.8 191.63 10.92C191.124 12.04 190.87 13.3867 190.87 14.96C190.87 16.5867 191.097 17.9733 191.55 19.12C192.03 20.24 192.684 21.0933 193.51 21.68C194.364 22.2667 195.35 22.56 196.47 22.56C197.484 22.56 198.377 22.3333 199.15 21.88C199.95 21.4267 200.63 20.9067 201.19 20.32L204.79 24.64C203.697 25.92 202.417 26.88 200.95 27.52C199.484 28.16 197.91 28.48 196.23 28.48ZM207.828 28V0.159998H214.708V6.64L214.388 10.08C215.081 9.46667 215.908 8.89333 216.868 8.36C217.854 7.8 219.028 7.52 220.388 7.52C222.601 7.52 224.188 8.26667 225.148 9.76C226.134 11.2267 226.628 13.2 226.628 15.68V28H219.748V16.56C219.748 15.28 219.588 14.4267 219.268 14C218.948 13.5733 218.441 13.36 217.748 13.36C217.108 13.36 216.574 13.4933 216.148 13.76C215.721 14.0267 215.241 14.4 214.708 14.88V28H207.828ZM236.309 28.48C235.056 28.48 233.976 28.2 233.069 27.64C232.189 27.0533 231.509 26.2933 231.029 25.36C230.549 24.4267 230.309 23.4133 230.309 22.32C230.309 20.24 231.162 18.6133 232.869 17.44C234.576 16.24 237.349 15.44 241.189 15.04C241.136 14.56 241.002 14.1733 240.789 13.88C240.576 13.56 240.269 13.3333 239.869 13.2C239.469 13.04 238.976 12.96 238.389 12.96C237.669 12.96 236.909 13.1067 236.109 13.4C235.309 13.6667 234.389 14.08 233.349 14.64L230.949 10.16C231.882 9.6 232.829 9.12 233.789 8.72C234.749 8.32 235.722 8.02667 236.709 7.84C237.696 7.62667 238.709 7.52 239.749 7.52C241.482 7.52 242.962 7.85333 244.189 8.52C245.442 9.16 246.402 10.1733 247.069 11.56C247.736 12.92 248.069 14.6933 248.069 16.88V28H242.469L241.989 26.08H241.829C241.029 26.8 240.176 27.3867 239.269 27.84C238.389 28.2667 237.402 28.48 236.309 28.48ZM238.709 23.2C239.269 23.2 239.736 23.08 240.109 22.84C240.482 22.5733 240.842 22.24 241.189 21.84V19.12C240.096 19.28 239.229 19.4933 238.589 19.76C237.976 20.0267 237.536 20.3333 237.269 20.68C237.002 21.0267 236.869 21.3867 236.869 21.76C236.869 22.2133 237.029 22.5733 237.349 22.84C237.669 23.08 238.122 23.2 238.709 23.2ZM260.794 28.48C258.208 28.48 256.328 27.7333 255.154 26.24C254.008 24.72 253.434 22.7467 253.434 20.32V13.36H250.794V8.24L253.834 8L254.634 2.8H260.314V8H264.874V13.36H260.314V20.2C260.314 21.2933 260.554 22.0533 261.034 22.48C261.514 22.9067 262.074 23.12 262.714 23.12C263.034 23.12 263.341 23.0933 263.634 23.04C263.954 22.96 264.234 22.88 264.474 22.8L265.514 27.76C265.008 27.92 264.368 28.08 263.594 28.24C262.821 28.4 261.888 28.48 260.794 28.48ZM279.69 28.48C278.81 28.48 277.943 28.2667 277.09 27.84C276.237 27.3867 275.423 26.72 274.65 25.84H274.49L273.93 28H268.57V0.159998H275.45V6.64L275.29 9.52C275.983 8.88 276.757 8.38667 277.61 8.04C278.463 7.69333 279.33 7.52 280.21 7.52C281.783 7.52 283.157 7.94667 284.33 8.8C285.503 9.62667 286.41 10.8 287.05 12.32C287.69 13.8133 288.01 15.5867 288.01 17.64C288.01 19.9333 287.61 21.8933 286.81 23.52C286.01 25.1467 284.97 26.3867 283.69 27.24C282.437 28.0667 281.103 28.48 279.69 28.48ZM278.01 22.88C278.543 22.88 279.037 22.72 279.49 22.4C279.943 22.08 280.303 21.5467 280.57 20.8C280.837 20.0533 280.97 19.04 280.97 17.76C280.97 16.6667 280.863 15.7867 280.65 15.12C280.437 14.4267 280.117 13.92 279.69 13.6C279.29 13.28 278.783 13.12 278.17 13.12C277.663 13.12 277.197 13.2267 276.77 13.44C276.343 13.6533 275.903 14.0267 275.45 14.56V21.92C275.85 22.2667 276.263 22.52 276.69 22.68C277.143 22.8133 277.583 22.88 278.01 22.88ZM300.653 28.48C298.946 28.48 297.333 28.0667 295.813 27.24C294.32 26.4133 293.093 25.2267 292.133 23.68C291.2 22.1067 290.733 20.2133 290.733 18C290.733 15.7867 291.2 13.9067 292.133 12.36C293.093 10.7867 294.32 9.58667 295.813 8.76C297.333 7.93333 298.946 7.52 300.653 7.52C302.36 7.52 303.96 7.93333 305.453 8.76C306.973 9.58667 308.2 10.7867 309.133 12.36C310.093 13.9067 310.573 15.7867 310.573 18C310.573 20.2133 310.093 22.1067 309.133 23.68C308.2 25.2267 306.973 26.4133 305.453 27.24C303.96 28.0667 302.36 28.48 300.653 28.48ZM300.653 22.96C301.346 22.96 301.906 22.76 302.333 22.36C302.76 21.96 303.066 21.3867 303.253 20.64C303.44 19.8933 303.533 19.0133 303.533 18C303.533 16.9867 303.44 16.1067 303.253 15.36C303.066 14.6133 302.76 14.04 302.333 13.64C301.906 13.24 301.346 13.04 300.653 13.04C299.96 13.04 299.4 13.24 298.973 13.64C298.546 14.04 298.24 14.6133 298.053 15.36C297.866 16.1067 297.773 16.9867 297.773 18C297.773 19.0133 297.866 19.8933 298.053 20.64C298.24 21.3867 298.546 21.96 298.973 22.36C299.4 22.76 299.96 22.96 300.653 22.96ZM322.396 28.48C319.809 28.48 317.929 27.7333 316.756 26.24C315.609 24.72 315.036 22.7467 315.036 20.32V13.36H312.396V8.24L315.436 8L316.236 2.8H321.916V8H326.476V13.36H321.916V20.2C321.916 21.2933 322.156 22.0533 322.636 22.48C323.116 22.9067 323.676 23.12 324.316 23.12C324.636 23.12 324.943 23.0933 325.236 23.04C325.556 22.96 325.836 22.88 326.076 22.8L327.116 27.76C326.609 27.92 325.969 28.08 325.196 28.24C324.423 28.4 323.489 28.48 322.396 28.48Z" fill="#A3D1FF"/>
</svg>
